<?xml version="1.0" encoding="utf-8"?>
<!-- Generator: Adobe Illustrator 22.1.0, SVG Export Plug-In . SVG Version: 6.00 Build 0)  -->
<svg version="1.1" id="Слой_1" xmlns="http://www.w3.org/2000/svg" xmlns:xlink="http://www.w3.org/1999/xlink" x="0px" y="0px"
	 viewBox="0 0 612 792" style="enable-background:new 0 0 612 792;" xml:space="preserve">
<style type="text/css">
	.st0{fill:#FFFFFF;}
</style>
<g>
	<g id="XMLID_1_">
		<g>
			<path d="M172.9,199.8c2.4,16.1,4.8,32.5,7,47.9c19.1-0.1,37.7-0.3,56.3-0.4c98.3,0,196.6,0,295,0c3.3,0,6.7,0.1,10,0.5
				c14.2,1.8,20.6,8.5,21.6,22.9c0.2,3.1,0.3,6.1,0.3,9.2c0,9.8-1.3,19.3-5.9,28.8c-8,16.8-14,34.5-21.4,51.6
				c-6,13.8-13.8,26.6-25.2,36.8c-10,9.1-21.9,12.7-35.3,12.7c-88.3-0.1-176.6,0-265,0c-2.1,0-4.2,0-7,0c1.1,7.5,1.9,14.4,3.1,21.2
				c0.2,0.9,1.9,1.9,3.1,2.3c1.4,0.4,3,0.1,4.5,0.1c114,0,228,0,342,0c1.9,0,3.9,0,6.8,0c-1.4,2.5-2.4,4.2-3.4,5.8
				c-7.2,11.8-14.5,23.5-21.5,35.4c-2.1,3.6-4.5,4.9-8.7,4.9c-64.2-0.1-128.3-0.1-192.5-0.1c-51.7,0-103.3-0.1-155,0.1
				c-8.1,0-16.2,0.9-24.9,1.3C145.5,403,134.3,325.3,123,246.9c-2.4,0-4.7,0-7,0c-11.3,0-22.7-0.1-34,0c-14.7,0.1-25.9-5.1-31-19.9
				c0-2.3,0-4.7,0-7c1.4-3.1,2.5-6.5,4.3-9.4c4.6-7.3,11.8-11,20.2-11.1c32-0.3,64-0.2,96-0.3C171.8,199.2,172.1,199.4,172.9,199.8z
				"/>
			<path d="M493.8,520.7c17.6,18.3,16.1,44.5-3.4,60.8c-8.8,7.3-19,11.5-30.2,13.4c-1.4,0.2-2.8,0.8-4.2,1.1c-4.3,0-8.7,0-13,0
				c-6.4-1.8-13-2.9-19-5.4c-13.8-5.6-24.6-14.8-29.2-29.5c-4.4-13.9-1.3-26.7,8.1-37.8C424.5,497.6,470.5,496.3,493.8,520.7z"/>
			<path class="st0" d="M214,433.4c-1.5,0-3.1,0.3-4.5-0.1c-1.2-0.3-2.9-1.3-3.1-2.3c-1.2-6.8-2.1-13.7-3.1-21.2c2.7,0,4.9,0,7,0
				c88.3,0,176.6,0,265,0c13.4,0,25.3-3.7,35.3-12.7c11.4-10.3,19.2-23,25.2-36.8c7.4-17.1,13.4-34.8,21.4-51.6
				c4.5-9.5,5.9-19,5.9-28.8h0.9c0,51.2,0,102.3,0,153.5h-1.3c-2.9,0-4.8,0-6.8,0C442,433.4,328,433.4,214,433.4z"/>
			<path d="M178.8,519.5c22.1-21.2,61.8-21.7,84.7-1.4c20.7,18.4,19.8,47.4-2.1,64.5c-8.7,6.8-18.6,10.8-29.6,12.4
				c-1.3,0.2-2.5,0.7-3.8,1.1c-4,0-8,0-12,0c-6.4-1.7-13-2.8-19.1-5.2c-13.9-5.4-24.8-14.5-29.6-29.1
				C161.8,545.3,166.6,531.1,178.8,519.5z"/>
			<path class="st0" d="M51,227c5.1,14.8,16.3,20,31,19.9c11.3-0.1,22.7,0,34,0c2.3,0,4.5,0,7,0c11.3,78.4,22.5,156.1,33.8,233.9
				c8.7-0.5,16.8-1.3,24.9-1.3c51.7-0.1,103.3-0.1,155-0.1c64.2,0,128.3,0,192.5,0.1c4.2,0,6.6-1.3,8.7-4.9
				c7-11.9,14.3-23.6,21.5-35.4c1-1.6,1.9-3.3,3.4-5.8h1.3c0,54.2,0,108.4,0,162.6c-36,0-72,0-108,0c1.4-0.4,2.8-0.9,4.2-1.1
				c11.2-1.9,21.4-6.1,30.2-13.4c19.5-16.3,21-42.5,3.4-60.8c-23.4-24.3-69.3-23.1-91,2.6c-9.4,11.1-12.4,23.9-8.1,37.8
				c4.6,14.7,15.4,23.9,29.2,29.5c6.1,2.5,12.7,3.6,19,5.4c-71.7,0-143.3,0-215,0c1.3-0.4,2.5-0.9,3.8-1.1
				c10.9-1.6,20.8-5.6,29.6-12.4c21.9-17.1,22.9-46,2.1-64.5c-22.9-20.4-62.6-19.9-84.7,1.4c-12.2,11.7-17,25.8-11.5,42.3
				c4.8,14.6,15.7,23.7,29.6,29.1c6.1,2.4,12.7,3.5,19.1,5.2c-55,0-110,0-165,0C51,473,51,350,51,227z"/>
			<path class="st0" d="M171.5,198c130.8,0,261.7,0,392.5,0c0,27.3,0,54.6,0,81.9h-0.9c0-3-0.1-6.1-0.3-9.2
				c-0.9-14.4-7.4-21-21.6-22.9c-3.3-0.4-6.6-0.5-10-0.5c-98.3,0-196.6,0-295,0c-18.6,0-37.2,0.2-56.3,0.4
				c-2.3-15.4-4.7-31.8-7-47.9c-0.8-0.3-1.2-0.5-1.5-0.5V198z"/>
			<path class="st0" d="M75.5,199.5c-8.4,0.1-15.5,3.8-20.2,11.1c-1.8,2.9-2.9,6.3-4.3,9.4c0-7.3,0-14.7,0-22c40.2,0,80.3,0,120.5,0
				v1.2C139.5,199.3,107.5,199.2,75.5,199.5z"/>
		</g>
		<g>
		</g>
	</g>
</g>
</svg>
