<?xml version="1.0" encoding="utf-8"?>
<!-- Generator: Adobe Illustrator 22.1.0, SVG Export Plug-In . SVG Version: 6.00 Build 0)  -->
<svg version="1.1" id="Слой_1" xmlns="http://www.w3.org/2000/svg" xmlns:xlink="http://www.w3.org/1999/xlink" x="0px" y="0px"
	 viewBox="0 0 612 792" style="enable-background:new 0 0 612 792;" xml:space="preserve">
<style type="text/css">
	.st0{fill:#FFFFFF;}
</style>
<g>
	<path d="M298,390c-0.3-4,2.7-1.2,4-2c1,0.7,2.1,2.1,3.1,2.1c3.6,0.2,7.2,0,10.9-0.1c0,3,0,6,0,9c-4.5,0.4-9,0.7-13.9,1.1
		c-0.4-3-0.4-5.3-1.2-7.5C300.6,391.6,299,390.9,298,390z"/>
	<path class="st0" d="M298,390c1,0.9,2.6,1.6,3,2.7c0.7,2.1,0.7,4.5,1.2,7.5c4.8-0.4,9.3-0.8,13.9-1.1c0,2,0,4,0,6c-6,0-12,0-18,0
		C298,400,298,395,298,390z"/>
	<path class="st0" d="M316,390c-3.6,0.1-7.3,0.3-10.9,0.1c-1.1-0.1-2.1-1.4-3.1-2.1c4.2,0,8.3-0.1,12.5,0.1
		C315,388.1,315.5,389.3,316,390z"/>
</g>
</svg>
